<svg width="54" height="54" viewBox="0 0 54 54" fill="none" xmlns="http://www.w3.org/2000/svg">
<circle cx="27" cy="27" r="27" fill="white"/>
<g clip-path="url(#clip0_46_2)">
<path d="M9.84835 20.7633C9.86998 20.1046 9.632 19.5064 9.4427 18.905C9.2231 18.2041 9.20688 17.5269 9.54546 16.866C9.9284 16.1164 10.5655 15.7108 11.3779 15.5399C12.0995 15.3884 12.8166 15.2186 13.4365 14.7805C14.4955 14.0342 15.1911 13.0531 15.4518 11.7691C15.5318 11.3754 15.6303 10.9698 15.8087 10.615C16.3529 9.53114 17.519 9.06602 18.7154 9.40458C19.1968 9.54088 19.6749 9.73017 20.166 9.78425C21.5733 9.93893 22.8465 9.58739 23.9045 8.60847C24.1857 8.34778 24.4367 8.05465 24.7082 7.78206C25.79 6.69822 27.3596 6.74906 28.3905 7.88807C28.9162 8.46893 29.4484 9.04114 30.1916 9.36564C31.3155 9.85781 32.4535 9.98112 33.638 9.59821C34.0566 9.463 34.4904 9.32238 34.9242 9.29966C36.1833 9.23368 37.1439 10.0514 37.4576 11.3754C37.5928 11.9476 37.688 12.5339 37.9866 13.0542C38.759 14.3998 39.8915 15.2327 41.4341 15.4999C42.0301 15.6026 42.5883 15.8103 43.0156 16.27C43.7155 17.0229 43.8626 17.8893 43.5619 18.8574C43.3769 19.4545 43.1638 20.0451 43.1746 20.6876C43.1963 22.0938 43.6657 23.2923 44.7248 24.2485C45.0558 24.5481 45.3922 24.8683 45.628 25.2415C46.2597 26.2431 46.0618 27.4632 45.2105 28.2896C44.7983 28.6899 44.3483 29.0739 44.026 29.5412C43.1746 30.7721 42.9356 32.1296 43.3888 33.5823C43.4743 33.856 43.5554 34.1318 43.6235 34.4109C43.9578 35.7911 43.1638 37.0729 41.7867 37.4201C41.1961 37.5694 40.5784 37.6895 40.0408 37.9588C38.7979 38.5818 37.9498 39.5705 37.6156 40.954C37.515 41.3683 37.4252 41.7901 37.2726 42.1871C36.841 43.3142 35.6143 43.934 34.445 43.6376C33.9095 43.5024 33.3859 43.2893 32.844 43.2233C31.4204 43.0513 30.1364 43.4105 29.0687 44.4067C28.7615 44.6933 28.4878 45.0168 28.1817 45.3056C27.1616 46.2683 25.6699 46.2185 24.6898 45.2115C24.2842 44.7939 23.8991 44.3331 23.4231 44.0119C22.1997 43.1855 20.8551 42.9475 19.4153 43.3877C18.9804 43.5208 18.5347 43.6733 18.0869 43.7014C16.8862 43.7772 15.892 43.0027 15.5794 41.8193C15.4518 41.3358 15.3782 40.8285 15.1835 40.3742C14.5669 38.9323 13.5046 37.9793 11.9588 37.5986C11.5315 37.4937 11.0913 37.4039 10.6899 37.2297C9.63308 36.7711 9.07599 35.6061 9.34426 34.4844C9.42106 34.1621 9.5195 33.8452 9.61686 33.5282C9.98573 32.3384 9.82022 31.1994 9.30315 30.0896C8.99161 29.42 8.46805 28.93 7.93475 28.4519C7.26407 27.8505 6.91791 27.1225 7.01311 26.2139C7.08667 25.5054 7.4577 24.9548 7.98776 24.5081C8.84341 23.7877 9.46541 22.9223 9.68933 21.8093C9.75857 21.4642 9.79426 21.1116 9.84619 20.7622L9.84835 20.7633ZM26.5245 11.5344C19.1091 11.449 12.1211 17.1862 11.5586 25.487C10.9896 33.883 17.3167 40.9042 25.4925 41.4418C33.9279 41.9967 40.8889 35.6332 41.4406 27.5184C42.0291 18.8801 35.1622 11.4976 26.5245 11.5344Z" fill="#2B4591"/>
<path d="M26.468 14.0287C33.0688 13.9779 38.6895 19.2349 38.9632 25.964C39.252 33.0631 33.72 38.6456 27.1452 38.9658C19.917 39.3174 14.2281 33.632 14.0193 26.9083C13.7997 19.8363 19.5016 14.0136 26.468 14.0287ZM24.0005 27.9673C23.6847 27.6504 23.384 27.3475 23.0821 27.0457C22.2817 26.2474 21.4952 25.4329 20.6742 24.6552C19.851 23.8764 18.5691 23.7931 17.6453 24.4118C16.3007 25.3118 16.1211 27.1333 17.2667 28.2907C18.0618 29.0933 18.8644 29.8884 19.6638 30.6866C20.526 31.5476 21.3784 32.4184 22.2535 33.2664C23.2639 34.2464 24.7524 34.241 25.7573 33.2632C26.441 32.599 27.1084 31.9176 27.7823 31.2426C29.6007 29.4243 31.4213 27.606 33.2375 25.7866C33.7384 25.2847 34.2792 24.812 34.7174 24.2582C35.5341 23.2274 35.3664 21.7552 34.4004 20.8985C33.4193 20.0288 31.9719 20.0277 31.0264 20.9547C29.1853 22.7612 27.3702 24.5946 25.5453 26.4183C25.0336 26.93 24.5241 27.4427 24.0005 27.9684V27.9673Z" fill="#2B4591"/>
</g>
<defs>
<clipPath id="clip0_46_2">
<rect width="39" height="39" fill="white" transform="translate(7 7)"/>
</clipPath>
</defs>
</svg>
