<svg width="31" height="21" viewBox="0 0 31 21" fill="none" xmlns="http://www.w3.org/2000/svg">
<g clip-path="url(#clip0_377_1968)">
<path d="M9.07347 18.2938C9.07347 17.1031 8.11962 16.1409 6.93924 16.1409C5.75885 16.1409 4.80501 17.1031 4.80501 18.2938M2.67078 5.38232H28.3292V18.2938H26.195H25.575C25.575 17.1031 24.6212 16.1409 23.4408 16.1409C22.2604 16.1409 21.3065 17.1031 21.3065 18.2938H19.9831H4.80501H2.67078M25.9864 7.95019H5.21635V9.75432H25.9864V7.95019Z" fill="#2B4591"/>
<path d="M7.07637 20.6692C8.25507 20.6692 9.2106 19.7054 9.2106 18.5163C9.2106 17.3273 8.25507 16.3634 7.07637 16.3634C5.89767 16.3634 4.94214 17.3273 4.94214 18.5163C4.94214 19.7054 5.89767 20.6692 7.07637 20.6692Z" stroke="#2B4591" stroke-width="1.1" stroke-miterlimit="10"/>
<path d="M23.5778 20.6692C24.7565 20.6692 25.7121 19.7054 25.7121 18.5163C25.7121 17.3273 24.7565 16.3634 23.5778 16.3634C22.3991 16.3634 21.4436 17.3273 21.4436 18.5163C21.4436 19.7054 22.3991 20.6692 23.5778 20.6692Z" stroke="#2B4591" stroke-width="1.1" stroke-miterlimit="10"/>
<path d="M31 3.0069H0V4.20965H31V3.0069Z" fill="#2B4591"/>
<path d="M28.3174 3.00687H2.68274L3.27889 0H27.7212L28.3174 3.00687Z" fill="#2B4591"/>
</g>
<defs>
<clipPath id="clip0_377_1968">
<rect width="31" height="21" fill="white"/>
</clipPath>
</defs>
</svg>
