<svg width="66" height="66" viewBox="0 0 66 66" fill="none" xmlns="http://www.w3.org/2000/svg">
<circle cx="33" cy="33" r="33" fill="white"/>
<g clip-path="url(#clip0_34_2)">
<path d="M46.6578 52.7355H19.3421C18.1994 52.7355 17.2705 51.8241 17.2705 50.704V15.2979C17.2705 14.1777 18.1994 13.2664 19.3421 13.2664H39.0091C39.1723 13.2664 39.3301 13.3301 39.4456 13.4442L48.5481 22.3745C48.6645 22.4877 48.7294 22.6426 48.7294 22.8027V50.7031C48.7294 51.8233 47.8005 52.7346 46.6587 52.7346L46.6578 52.7355ZM19.3421 14.4785C18.8812 14.4785 18.5061 14.8466 18.5061 15.2979V50.7031C18.5061 51.1552 18.8812 51.5224 19.3421 51.5224H46.6578C47.1187 51.5224 47.4929 51.1543 47.4929 50.7031V23.054L38.7529 14.4785H19.3421Z" fill="#567AE3"/>
<path d="M46.6579 53H19.3421C18.0507 53 17 51.9692 17 50.7031V15.2978C17 14.0317 18.0507 13 19.3421 13H39.0091C39.2436 13 39.4727 13.0929 39.6377 13.2557L48.7403 22.186C48.908 22.3497 49.0009 22.5691 49.0009 22.8018V50.7022C49.0009 51.9692 47.9502 52.9991 46.6597 52.9991L46.6579 53ZM19.3421 13.5318C18.3492 13.5318 17.5411 14.3245 17.5411 15.2978V50.7031C17.5411 51.6772 18.3492 52.4691 19.3421 52.4691H46.6579C47.6508 52.4691 48.458 51.6763 48.458 50.7031V22.8027C48.458 22.7116 48.4219 22.6266 48.3561 22.562L39.2535 13.6317C39.1886 13.568 39.0993 13.5318 39.0082 13.5318H19.3421ZM46.6579 51.7887H19.3421C18.7325 51.7887 18.2356 51.3021 18.2356 50.7039V15.2978C18.2356 14.6997 18.7316 14.2131 19.3421 14.2131H38.8648L47.7644 22.9443V50.7031C47.7644 51.3012 47.2684 51.7878 46.6588 51.7878L46.6579 51.7887ZM19.3421 14.7439C19.0301 14.7439 18.7767 14.9926 18.7767 15.2978V50.7031C18.7767 51.0083 19.0301 51.257 19.3421 51.257H46.6579C46.969 51.257 47.2224 51.0083 47.2224 50.7031V23.1637L38.6403 14.7439H19.3421Z" fill="#567AE3"/>
<path d="M48.1118 23.4088H40.4622C39.3204 23.4088 38.3906 22.4975 38.3906 21.3773V13.8725C38.3906 13.6274 38.5412 13.4062 38.7721 13.3124C39.0021 13.2186 39.269 13.2699 39.4449 13.4433L48.5474 22.3736C48.7242 22.547 48.7774 22.8081 48.6818 23.0337C48.5862 23.2602 48.3608 23.4079 48.1109 23.4079L48.1118 23.4088ZM39.6262 15.3359V21.3773C39.6262 21.8295 40.0014 22.1967 40.4622 22.1967H46.6201L39.6262 15.3359Z" fill="#567AE3"/>
<path d="M48.1119 23.6742H40.4623C39.1708 23.6742 38.1201 22.6434 38.1201 21.3772V13.8724C38.1201 13.5184 38.3357 13.2026 38.6685 13.0672C39.0003 12.9309 39.3809 13.0053 39.6362 13.2565L48.7387 22.1868C48.9939 22.4363 49.0697 22.8097 48.9308 23.1362C48.7928 23.4627 48.4708 23.6742 48.1101 23.6742H48.1119ZM39.0094 13.5317C38.9643 13.5317 38.9201 13.5406 38.8768 13.5583C38.746 13.6113 38.6621 13.7352 38.6621 13.8732V21.3781C38.6621 22.3523 39.4702 23.1442 40.4632 23.1442H48.1128C48.2535 23.1442 48.3797 23.0619 48.4339 22.9336C48.488 22.8053 48.4582 22.6602 48.359 22.5629L39.2538 13.6317C39.187 13.5662 39.0986 13.5317 39.0094 13.5317ZM47.2732 22.4629H40.4623C39.8526 22.4629 39.3557 21.9762 39.3557 21.3781V14.6952L47.2732 22.462V22.4629ZM39.8968 15.9773V21.3781C39.8968 21.6834 40.1502 21.932 40.4623 21.932H45.9673L39.8977 15.9773H39.8968Z" fill="#567AE3"/>
<path d="M43.5708 29.1618H22.4293C22.0884 29.1618 21.8115 28.8901 21.8115 28.5557C21.8115 28.2212 22.0884 27.9496 22.4293 27.9496H43.5708C43.9117 27.9496 44.1886 28.2212 44.1886 28.5557C44.1886 28.8901 43.9117 29.1618 43.5708 29.1618Z" fill="#567AE3"/>
<path d="M43.5709 29.4271H22.4294C21.9396 29.4271 21.541 29.0361 21.541 28.5556C21.541 28.0752 21.9396 27.6841 22.4294 27.6841H43.5709C44.0606 27.6841 44.4592 28.0752 44.4592 28.5556C44.4592 29.0361 44.0606 29.4271 43.5709 29.4271ZM22.4294 28.215C22.2382 28.215 22.0821 28.368 22.0821 28.5556C22.0821 28.7432 22.2382 28.8963 22.4294 28.8963H43.5709C43.7621 28.8963 43.9181 28.7432 43.9181 28.5556C43.9181 28.368 43.7621 28.215 43.5709 28.215H22.4294Z" fill="#567AE3"/>
<path d="M22.4293 23.9433C22.0884 23.9433 21.8115 23.6716 21.8115 23.3372C21.8115 23.0027 22.0884 22.7311 22.4293 22.7311H32.0243C32.3652 22.7311 32.642 23.0027 32.642 23.3372C32.642 23.6716 32.3652 23.9433 32.0243 23.9433H22.4293Z" fill="#567AE3"/>
<path d="M22.4294 24.2086C21.9396 24.2086 21.541 23.8175 21.541 23.3371C21.541 22.8567 21.9396 22.4656 22.4294 22.4656H32.0243C32.514 22.4656 32.9126 22.8567 32.9126 23.3371C32.9126 23.8175 32.514 24.2086 32.0243 24.2086H22.4294ZM32.0243 22.9965H22.4294C22.2382 22.9965 22.0821 23.1495 22.0821 23.3371C22.0821 23.5247 22.2382 23.6778 22.4294 23.6778H32.0243C32.2155 23.6778 32.3715 23.5247 32.3715 23.3371C32.3715 23.1495 32.2155 22.9965 32.0243 22.9965Z" fill="#567AE3"/>
<path d="M22.4293 33.607C22.0884 33.607 21.8115 33.3353 21.8115 33.0009C21.8115 32.6664 22.0884 32.3948 22.4293 32.3948H43.5708C43.9117 32.3948 44.1886 32.6664 44.1886 33.0009C44.1886 33.3353 43.9117 33.607 43.5708 33.607H22.4293Z" fill="#567AE3"/>
<path d="M22.4294 33.8724C21.9396 33.8724 21.541 33.4814 21.541 33.0009C21.541 32.5205 21.9396 32.1294 22.4294 32.1294H43.5709C44.0606 32.1294 44.4592 32.5205 44.4592 33.0009C44.4592 33.4814 44.0606 33.8724 43.5709 33.8724H22.4294ZM43.5709 32.6603H22.4294C22.2382 32.6603 22.0821 32.8133 22.0821 33.0009C22.0821 33.1885 22.2382 33.3416 22.4294 33.3416H43.5709C43.7621 33.3416 43.9181 33.1885 43.9181 33.0009C43.9181 32.8133 43.7621 32.6603 43.5709 32.6603Z" fill="#567AE3"/>
<path d="M22.4293 38.0523C22.0884 38.0523 21.8115 37.7806 21.8115 37.4462C21.8115 37.1117 22.0884 36.8401 22.4293 36.8401H43.5708C43.9117 36.8401 44.1886 37.1108 44.1886 37.4462C44.1886 37.7815 43.9117 38.0523 43.5708 38.0523H22.4293Z" fill="#567AE3"/>
<path d="M22.4294 38.3176C21.9396 38.3176 21.541 37.9266 21.541 37.4461C21.541 36.9657 21.9396 36.5746 22.4294 36.5746H43.5709C44.0606 36.5746 44.4592 36.9657 44.4592 37.4461C44.4592 37.9266 44.0606 38.3176 43.5709 38.3176H22.4294ZM43.5709 37.1055H22.4294C22.2382 37.1055 22.0821 37.2585 22.0821 37.4461C22.0821 37.6337 22.2382 37.7868 22.4294 37.7868H43.5709C43.7621 37.7868 43.9181 37.6337 43.9181 37.4461C43.9181 37.2585 43.7621 37.1055 43.5709 37.1055Z" fill="#567AE3"/>
<path d="M43.5708 42.4966H22.4293C22.0884 42.4966 21.8115 42.225 21.8115 41.8905C21.8115 41.5561 22.0884 41.2844 22.4293 41.2844H43.5708C43.9117 41.2844 44.1886 41.5561 44.1886 41.8905C44.1886 42.225 43.9117 42.4966 43.5708 42.4966Z" fill="#567AE3"/>
<path d="M43.5709 42.762H22.4294C21.9396 42.762 21.541 42.3709 21.541 41.8904C21.541 41.41 21.9396 41.0189 22.4294 41.0189H43.5709C44.0606 41.0189 44.4592 41.41 44.4592 41.8904C44.4592 42.3709 44.0606 42.762 43.5709 42.762ZM22.4294 41.5498C22.2382 41.5498 22.0821 41.7029 22.0821 41.8904C22.0821 42.078 22.2382 42.2311 22.4294 42.2311H43.5709C43.7621 42.2311 43.9181 42.078 43.9181 41.8904C43.9181 41.7029 43.7621 41.5498 43.5709 41.5498H22.4294Z" fill="#567AE3"/>
<path d="M22.4293 46.9418C22.0884 46.9418 21.8115 46.6702 21.8115 46.3357C21.8115 46.0012 22.0884 45.7296 22.4293 45.7296H43.5708C43.9117 45.7296 44.1886 46.0004 44.1886 46.3357C44.1886 46.671 43.9117 46.9418 43.5708 46.9418H22.4293Z" fill="#567AE3"/>
<path d="M22.4294 47.2072C21.9396 47.2072 21.541 46.8161 21.541 46.3356C21.541 45.8552 21.9396 45.4641 22.4294 45.4641H43.5709C44.0606 45.4641 44.4592 45.8543 44.4592 46.3356C44.4592 46.817 44.0606 47.2072 43.5709 47.2072H22.4294ZM43.5709 45.9941H22.4294C22.2382 45.9941 22.0821 46.1472 22.0821 46.3348C22.0821 46.5223 22.2382 46.6754 22.4294 46.6754H43.5709C43.7621 46.6754 43.9181 46.5223 43.9181 46.3348C43.9181 46.1472 43.7621 45.9941 43.5709 45.9941Z" fill="#567AE3"/>
</g>
<defs>
<clipPath id="clip0_34_2">
<rect width="32" height="40" fill="white" transform="translate(17 13)"/>
</clipPath>
</defs>
</svg>
