<svg width="54" height="54" viewBox="0 0 54 54" fill="none" xmlns="http://www.w3.org/2000/svg">
<circle cx="27" cy="27" r="27" fill="white"/>
<g clip-path="url(#clip0_46_4)">
<path d="M27.0046 46C29.1912 45.9784 31.3677 45.8338 33.5258 45.4533C35.2051 45.1571 36.8536 44.7504 38.4324 44.0848C39.3887 43.6819 40.2997 43.197 41.0639 42.466C41.7042 41.8534 42.0867 41.1247 41.9831 40.2041C41.9014 39.4787 41.8629 38.7359 41.6758 38.0367C40.4827 33.5789 37.6421 30.8705 33.2254 29.8792C33.1171 29.8549 32.9648 29.8956 32.8722 29.9621C32.063 30.5466 31.1929 31.0001 30.2512 31.3184C29.0362 31.7288 27.7853 31.8004 26.5203 31.7766C24.7552 31.7429 23.0934 31.3067 21.6389 30.2831C21.0775 29.8881 20.5968 29.8778 19.9936 30.0421C15.3297 31.3132 12.0294 35.6021 12 40.4526C11.9968 41.0048 12.1537 41.4944 12.4702 41.9348C12.8794 42.5048 13.4165 42.9265 14.0022 43.2878C15.2668 44.0685 16.6484 44.5529 18.0689 44.9305C20.9986 45.7098 23.9878 45.9751 27.0046 46.0004V46ZM27.8257 29.6944C27.7454 29.6317 27.6945 29.5909 27.6427 29.5521C26.8831 28.983 26.5629 28.0591 26.812 27.1563C27.0633 26.2461 27.8197 25.6002 28.761 25.5492C29.393 25.515 30.0288 25.5356 30.6627 25.5459C31.0622 25.5525 31.4163 25.7102 31.7525 25.9269C31.8511 25.9905 31.9965 26.0294 32.1089 26.0097C32.5066 25.94 32.9006 25.8468 33.2919 25.7472C33.3758 25.7256 33.4717 25.6554 33.5143 25.5796C33.7272 25.2024 33.9455 24.8256 34.123 24.4302C34.9597 22.5661 35.2821 20.628 34.8152 18.6067C33.801 14.2167 29.6242 11.513 25.2992 12.449C21.3481 13.3041 18.513 17.1296 19.0299 21.4742C19.2345 23.1923 19.8532 24.7545 20.8426 26.1581C21.9655 27.7507 23.3847 28.9479 25.2607 29.5062C26.0868 29.7519 26.9299 29.8334 27.8257 29.6939V29.6944ZM40.2465 22.6723H40.2483C40.2483 22.0325 40.246 21.3932 40.2488 20.7535C40.252 19.9232 39.9318 19.2787 39.2227 18.8458C39.1649 18.8103 39.1154 18.7199 39.1057 18.6493C39.0544 18.2636 39.0296 17.8742 38.9723 17.4895C38.6062 15.0343 37.62 12.8637 35.9587 11.0548C32.9882 7.82085 29.3215 6.50152 25.0213 7.16797C22.1586 7.61164 19.7785 9.01802 17.8726 11.2341C16.0594 13.3425 15.0911 15.8192 14.8902 18.6142C14.8838 18.7012 14.815 18.8145 14.7421 18.8613C14.0935 19.2759 13.7554 19.8731 13.749 20.6472C13.7376 21.9965 13.7435 23.3458 13.7472 24.6951C13.7486 25.1093 13.8591 25.4949 14.0862 25.8412C14.587 26.6055 15.5434 26.942 16.4328 26.6668C17.2818 26.4042 17.8538 25.6133 17.857 24.6777C17.8616 23.3673 17.8552 22.0573 17.8589 20.7469C17.8612 19.9335 17.5428 19.304 16.8676 18.8622C16.8089 18.8238 16.7539 18.7157 16.7608 18.6465C16.8043 18.1976 16.8378 17.7446 16.9254 17.3037C18.0538 11.6408 23.4058 7.98184 28.9527 9.07372C33.5042 9.96996 36.9403 13.9298 37.2393 18.6184C37.2471 18.7424 37.2247 18.8107 37.115 18.8805C36.4596 19.2984 36.1403 19.912 36.1389 20.6978C36.1366 21.9534 36.1307 23.2091 36.1408 24.4648C36.1431 24.7573 36.211 25.0489 36.2353 25.3423C36.2408 25.4088 36.2091 25.5113 36.1605 25.544C35.9119 25.7102 35.6596 25.874 35.3954 26.0116C34.2115 26.628 32.9433 26.9453 31.6273 27.0777C31.564 27.0843 31.4768 27.0258 31.4282 26.9715C31.1718 26.6855 30.8636 26.5311 30.4792 26.5339C29.9517 26.5381 29.4242 26.5315 28.8967 26.5362C28.2358 26.5423 27.7225 27.0665 27.7128 27.7376C27.7032 28.4181 28.216 28.9643 28.8853 28.9736C29.4357 28.9811 29.9861 28.9764 30.5365 28.975C30.8773 28.9741 31.1828 28.8477 31.3764 28.5725C31.5245 28.3619 31.6979 28.3002 31.9236 28.2786C32.1892 28.2534 32.4548 28.2197 32.718 28.1747C34.2235 27.9173 35.6458 27.4329 36.9114 26.5372C37.0315 26.452 37.1109 26.4623 37.2352 26.5241C38.62 27.2148 40.2612 26.2975 40.2474 24.638C40.2419 23.9827 40.2465 23.3275 40.2465 22.6723Z" fill="white"/>
<path d="M27.0046 45.9995C23.9878 45.9747 20.9981 45.7094 18.0689 44.9301C16.6484 44.5524 15.2668 44.068 14.0022 43.2874C13.4165 42.9261 12.8794 42.504 12.4702 41.9344C12.1537 41.4944 11.9968 41.0049 12 40.4526C12.0294 35.6022 15.3297 31.3133 19.9931 30.0431C20.5963 29.8788 21.077 29.8887 21.6384 30.2841C23.0929 31.3081 24.7548 31.7443 26.5198 31.7776C27.7853 31.8014 29.0362 31.7298 30.2508 31.3194C31.1929 31.0011 32.063 30.5476 32.8717 29.9631C32.9644 29.8961 33.1166 29.8559 33.2249 29.8802C37.6416 30.8715 40.4823 33.5803 41.6753 38.0377C41.8624 38.7369 41.901 39.4796 41.9826 40.2051C42.0867 41.1261 41.7042 41.8543 41.0634 42.467C40.2992 43.198 39.3878 43.6829 38.4319 44.0858C36.8531 44.7513 35.2046 45.1581 33.5253 45.4543C31.3672 45.8348 29.1907 45.9794 27.0042 46.0005L27.0046 45.9995Z" fill="#2B4591"/>
<path d="M27.8254 29.6944C26.9296 29.8339 26.0865 29.7529 25.2604 29.5067C23.3844 28.9484 21.9652 27.7512 20.8423 26.1586C19.853 24.755 19.2337 23.1928 19.0296 21.4747C18.5127 17.1301 21.3478 13.3046 25.2989 12.4495C29.6239 11.5135 33.8007 14.2172 34.8149 18.6072C35.2818 20.6285 34.9594 22.5661 34.1227 24.4307C33.9452 24.8257 33.7269 25.2024 33.514 25.5801C33.4714 25.6559 33.3755 25.7266 33.2916 25.7477C32.9003 25.8474 32.5063 25.941 32.1086 26.0102C31.9962 26.0299 31.8508 25.991 31.7522 25.9274C31.416 25.7107 31.0619 25.553 30.6624 25.5464C30.0285 25.5357 29.3927 25.5155 28.7607 25.5497C27.8194 25.6002 27.0626 26.2461 26.8117 27.1569C26.5626 28.0596 26.8833 28.983 27.6424 29.5526C27.6942 29.5915 27.7451 29.6322 27.8254 29.6949V29.6944Z" fill="#2B4591"/>
<path d="M40.2466 22.6728C40.2466 23.328 40.242 23.9833 40.2475 24.6385C40.2608 26.298 38.6201 27.2154 37.2353 26.5246C37.111 26.4628 37.0316 26.4525 36.9114 26.5377C35.6459 27.4334 34.2235 27.9178 32.7181 28.1752C32.4548 28.2202 32.1893 28.2539 31.9237 28.2791C31.698 28.3007 31.5246 28.3625 31.3765 28.5731C31.1829 28.8487 30.8774 28.9746 30.5366 28.9756C29.9862 28.977 29.4358 28.9821 28.8853 28.9741C28.2161 28.9648 27.7033 28.4186 27.7129 27.7381C27.7221 27.067 28.2358 26.5428 28.8968 26.5367C29.4243 26.5321 29.9518 26.5386 30.4793 26.5344C30.8637 26.5316 31.1719 26.6856 31.4283 26.972C31.4769 27.0263 31.5641 27.0843 31.6274 27.0782C32.9433 26.9458 34.2112 26.6285 35.3955 26.0121C35.6597 25.8745 35.9124 25.7107 36.1606 25.5445C36.2092 25.5118 36.2408 25.4093 36.2353 25.3428C36.211 25.0494 36.1431 24.7578 36.1409 24.4653C36.1303 23.2096 36.1363 21.954 36.139 20.6983C36.1404 19.9125 36.4601 19.2989 37.1151 18.881C37.2247 18.8108 37.2472 18.7429 37.2394 18.6189C36.9403 13.9299 33.5043 9.97001 28.9528 9.07423C23.4059 7.98236 18.0543 11.6413 16.926 17.3047C16.8379 17.7456 16.8049 18.1986 16.7613 18.6474C16.7544 18.7167 16.8095 18.8248 16.8682 18.8632C17.5434 19.3055 17.8622 19.9349 17.8594 20.7479C17.8557 22.0583 17.8622 23.3683 17.8576 24.6787C17.8544 25.6143 17.2824 26.4052 16.4333 26.6678C15.5439 26.9425 14.5876 26.6065 14.0867 25.8422C13.8596 25.4954 13.7486 25.1098 13.7477 24.696C13.7441 23.3468 13.7376 21.9975 13.7496 20.6482C13.756 19.8741 14.094 19.2769 14.7426 18.8623C14.8156 18.8155 14.8844 18.7022 14.8908 18.6151C15.0917 15.8202 16.06 13.3434 17.8732 11.235C19.7781 9.01854 22.1582 7.61169 25.0213 7.16801C29.3215 6.50156 32.9883 7.82089 35.9592 11.0549C37.6206 12.8637 38.6068 15.0339 38.9728 17.4896C39.0301 17.8743 39.0549 18.2637 39.1063 18.6493C39.1159 18.7204 39.1654 18.8108 39.2232 18.8459C39.9324 19.2788 40.2525 19.9232 40.2493 20.7535C40.2466 21.3933 40.2489 22.0326 40.2489 22.6724H40.247L40.2466 22.6728Z" fill="#2B4591"/>
</g>
<defs>
<clipPath id="clip0_46_4">
<rect width="30" height="39" fill="white" transform="translate(12 7)"/>
</clipPath>
</defs>
</svg>
