<svg width="54" height="54" viewBox="0 0 54 54" fill="none" xmlns="http://www.w3.org/2000/svg">
<circle cx="27" cy="27" r="27" fill="white"/>
<g clip-path="url(#clip0_46_3)">
<path d="M22.0144 21.5123C22.0144 21.6951 22.0045 21.8787 22.0159 22.0615C22.0438 22.5095 22.0468 22.9174 21.6055 23.2148C21.4373 23.3285 21.3136 23.6384 21.3083 23.8628C21.2909 24.5375 21.2766 25.2263 21.3845 25.8877C21.4856 26.5075 21.9412 26.9138 22.4775 27.2073C22.605 27.2771 22.7325 27.405 22.7943 27.5391C23.161 28.337 23.6196 29.0603 24.2563 29.6558C24.6018 29.979 24.5542 30.4599 24.1974 30.7785C23.2243 31.6477 22.1381 32.2848 20.9319 32.7516C19.9226 33.1423 18.963 33.6718 17.9733 34.1206C17.4913 34.3387 17.2318 34.687 17.1353 35.2291C16.7958 37.1418 16.4247 39.0482 16.0867 40.9617C16.0596 41.1155 16.1463 41.3508 16.258 41.463C18.6643 43.8778 21.524 45.3708 24.8371 45.8392C29.0999 46.4417 32.9621 45.3614 36.3974 42.6649C36.8674 42.2962 37.3072 41.8812 37.7341 41.4583C37.8465 41.3469 37.9318 41.1116 37.9038 40.957C37.5591 39.0192 37.1842 37.0869 36.8342 35.1499C36.7497 34.6831 36.5279 34.3661 36.1138 34.1755C34.8397 33.5894 33.5799 32.965 32.2893 32.4213C31.6624 32.1569 31.0899 31.8352 30.5694 31.3959C30.3257 31.1896 30.0738 30.9934 29.8233 30.7965C29.419 30.478 29.3964 29.9774 29.7713 29.6205C30.3823 29.0384 30.8349 28.3425 31.1789 27.5611C31.24 27.4222 31.3629 27.2779 31.4927 27.212C32.3285 26.7867 32.72 26.0916 32.714 25.1361C32.7117 24.8223 32.7094 24.5085 32.714 24.1946C32.7223 23.691 32.5631 23.2846 32.1542 22.9786C32.0501 22.9009 31.9853 22.7017 31.9807 22.5558C31.9551 21.772 32.023 20.9788 31.9302 20.2061C31.7228 18.4785 30.6984 17.3739 29.1882 16.7729C27.1816 15.9751 25.258 16.1924 23.514 17.5371C22.5507 18.28 22.0792 19.3297 22.0144 20.5717C21.9978 20.8847 22.0121 21.1993 22.0121 21.5131H22.0106L22.0144 21.5123Z" fill="#2B4591"/>
<path d="M21.3897 30.3426C18.9524 28.2337 17.7243 25.5569 17.8797 22.2642C17.9966 19.7961 18.9494 17.6841 20.6572 15.9722C24.2502 12.372 29.9507 12.4434 33.4494 16.0656C37.1954 19.9428 37.1155 26.6992 32.6038 30.3622C33.1944 30.6179 33.7677 30.8611 34.3372 31.1153C34.7755 31.3115 35.213 31.5099 35.6407 31.7296C35.8565 31.8402 35.9885 31.8112 36.1552 31.6214C37.329 30.2798 38.2304 28.7696 38.7713 27.0428C38.8859 26.6756 39.0353 26.5399 39.4208 26.5391C40.4738 26.5368 41.5269 26.4748 42.6554 26.4332C42.7625 25.542 42.9021 24.6672 42.9647 23.787C43.0673 22.3466 42.9428 20.9156 42.6773 19.4979C42.635 19.272 42.5475 19.1794 42.3084 19.1755C41.3036 19.1598 40.2988 19.1088 39.2933 19.0908C39.0247 19.0861 38.9063 18.9911 38.8211 18.7189C38.299 17.0447 37.4678 15.5478 36.34 14.2369C36.1529 14.0195 36.1167 13.8618 36.2593 13.5959C36.7421 12.6952 37.1849 11.7711 37.6662 10.8696C37.7989 10.6209 37.7552 10.4978 37.5605 10.3205C35.9402 8.8471 34.1117 7.76052 32.0772 7.03953C31.8487 6.95872 31.7453 7.01364 31.6284 7.21291C31.0981 8.11591 30.5482 9.00636 30.0201 9.91093C29.8957 10.1235 29.7712 10.1839 29.5328 10.1306C27.8514 9.75637 26.1662 9.75245 24.4848 10.129C24.2298 10.1863 24.1016 10.1173 23.9695 9.8921C23.4407 8.98831 22.8886 8.09944 22.356 7.19722C22.2451 7.00893 22.1448 6.95951 21.9343 7.03404C19.9014 7.75816 18.0676 8.83455 16.4518 10.3134C16.2466 10.5017 16.2021 10.6311 16.3424 10.8924C16.8199 11.7813 17.2581 12.6929 17.7326 13.5833C17.8692 13.8383 17.8654 14.0023 17.67 14.2267C16.5264 15.5431 15.6974 17.0557 15.1671 18.7401C15.0849 19.0005 14.968 19.0845 14.7168 19.09C13.6245 19.1135 12.5322 19.1551 11.3758 19.1928C11.2822 19.7937 11.1683 20.3907 11.1004 20.9925C10.9051 22.7192 11.0039 24.435 11.3192 26.1406C11.3637 26.3799 11.4746 26.4513 11.6964 26.4568C12.6385 26.4795 13.5807 26.5415 14.5229 26.5391C14.9235 26.5376 15.103 26.6631 15.232 27.0679C15.7713 28.7641 16.6532 30.2578 17.8088 31.5806C17.9838 31.7814 18.1226 31.8418 18.3829 31.7163C19.3628 31.2471 20.357 30.8109 21.3882 30.3433L21.3897 30.3426Z" fill="#2B4591"/>
</g>
<defs>
<clipPath id="clip0_46_3">
<rect width="32" height="39" fill="white" transform="matrix(-1 0 0 1 43 7)"/>
</clipPath>
</defs>
</svg>
